<?xml version="1.0" encoding="UTF-8"?>
<!DOCTYPE svg PUBLIC "-//W3C//DTD SVG 1.1//EN" "http://www.w3.org/Graphics/SVG/1.1/DTD/svg11.dtd">
<svg xmlns="http://www.w3.org/2000/svg" version="1.1" width="285px" height="265px" style="shape-rendering:geometricPrecision; text-rendering:geometricPrecision; image-rendering:optimizeQuality; fill-rule:evenodd; clip-rule:evenodd" xmlns:xlink="http://www.w3.org/1999/xlink">
<g><path style="opacity:0" fill="#fefefe" d="M -0.5,-0.5 C 94.5,-0.5 189.5,-0.5 284.5,-0.5C 284.5,87.8333 284.5,176.167 284.5,264.5C 189.5,264.5 94.5,264.5 -0.5,264.5C -0.5,176.167 -0.5,87.8333 -0.5,-0.5 Z"/></g>
<g><path style="opacity:1" fill="#7a6c64" d="M 64.5,32.5 C 55.1045,31.8623 46.1045,32.5289 37.5,34.5C 36.596,33.791 36.2627,32.791 36.5,31.5C 46.015,31.1731 55.3483,31.5064 64.5,32.5 Z"/></g>
<g><path style="opacity:1" fill="#392214" d="M 64.5,32.5 C 55.8955,34.4711 46.8955,35.1377 37.5,34.5C 46.1045,32.5289 55.1045,31.8623 64.5,32.5 Z"/></g>
<g><path style="opacity:1" fill="#a2948e" d="M 114.5,35.5 C 111.615,35.1936 108.948,35.5269 106.5,36.5C 105.957,36.44 105.624,36.1067 105.5,35.5C 108.645,34.1968 111.645,34.1968 114.5,35.5 Z"/></g>
<g><path style="opacity:1" fill="#93847b" d="M 79.5,41.5 C 76.3752,42.4794 73.0419,42.8128 69.5,42.5C 69.5,38.8333 69.5,35.1667 69.5,31.5C 73.1667,31.5 76.8333,31.5 80.5,31.5C 80.8128,35.0419 80.4794,38.3752 79.5,41.5 Z"/></g>
<g><path style="opacity:1" fill="#382114" d="M 79.5,41.5 C 76.5,41.5 73.5,41.5 70.5,41.5C 70.5,38.5 70.5,35.5 70.5,32.5C 73.5,32.5 76.5,32.5 79.5,32.5C 79.5,35.5 79.5,38.5 79.5,41.5 Z"/></g>
<g><path style="opacity:1" fill="#321a10" d="M 52.5,39.5 C 56.9707,38.9106 60.9707,39.5772 64.5,41.5C 60.0293,42.0894 56.0293,41.4228 52.5,39.5 Z"/></g>
<g><path style="opacity:1" fill="#80766a" d="M 52.5,39.5 C 56.0293,41.4228 60.0293,42.0894 64.5,41.5C 60.3656,42.4849 56.0323,42.8182 51.5,42.5C 51.2627,41.209 51.596,40.209 52.5,39.5 Z"/></g>
<g><path style="opacity:1" fill="#3b2417" d="M 207.5,46.5 C 211.5,46.5 215.5,46.5 219.5,46.5C 219.5,50.5 219.5,54.5 219.5,58.5C 215.5,58.5 211.5,58.5 207.5,58.5C 207.5,54.5 207.5,50.5 207.5,46.5 Z"/></g>
<g><path style="opacity:1" fill="#4a3329" d="M 44.5,46.5 C 51.1667,46.5 57.8333,46.5 64.5,46.5C 64.5,47.5 64.5,48.5 64.5,49.5C 57.8333,49.5 51.1667,49.5 44.5,49.5C 44.5,48.5 44.5,47.5 44.5,46.5 Z"/></g>
<g><path style="opacity:1" fill="#341c12" d="M 207.5,63.5 C 216.857,63.1684 226.19,63.5017 235.5,64.5C 230.833,64.8333 226.167,65.1667 221.5,65.5C 216.449,65.4933 211.783,64.8266 207.5,63.5 Z"/></g>
<g><path style="opacity:1" fill="#4f3b31" d="M 207.5,70.5 C 211.833,70.5 216.167,70.5 220.5,70.5C 220.5,71.5 220.5,72.5 220.5,73.5C 216.167,73.5 211.833,73.5 207.5,73.5C 207.5,72.5 207.5,71.5 207.5,70.5 Z"/></g>
<g><path style="opacity:1" fill="#a59e9a" d="M 207.5,78.5 C 214.313,77.5088 221.313,77.1755 228.5,77.5C 228.737,78.791 228.404,79.791 227.5,80.5C 221.25,78.5411 214.584,77.8745 207.5,78.5 Z"/></g>
<g><path style="opacity:1" fill="#2f190b" d="M 207.5,78.5 C 214.584,77.8745 221.25,78.5411 227.5,80.5C 220.416,81.1255 213.75,80.4589 207.5,78.5 Z"/></g>
<g><path style="opacity:1" fill="#2f1a0d" d="M 67.5,108.5 C 71.5546,108.176 75.5546,108.509 79.5,109.5C 77.5,109.833 75.5,110.167 73.5,110.5C 71.0478,110.461 69.0478,109.794 67.5,108.5 Z"/></g>
<g><path style="opacity:1" fill="#483327" d="M 59.5,115.5 C 66.1667,115.5 72.8333,115.5 79.5,115.5C 79.5,116.5 79.5,117.5 79.5,118.5C 72.8333,118.5 66.1667,118.5 59.5,118.5C 59.5,117.5 59.5,116.5 59.5,115.5 Z"/></g>
<g><path style="opacity:1" fill="#412a1e" d="M 207.5,118.5 C 210.167,118.5 212.833,118.5 215.5,118.5C 215.5,120.833 215.5,123.167 215.5,125.5C 212.833,125.5 210.167,125.5 207.5,125.5C 207.5,123.167 207.5,120.833 207.5,118.5 Z"/></g>
<g><path style="opacity:1" fill="#2f1a0e" d="M 207.5,130.5 C 223.5,131.167 223.5,131.833 207.5,132.5C 207.5,131.833 207.5,131.167 207.5,130.5 Z"/></g>
<g><path style="opacity:1" fill="#857971" d="M 79.5,123.5 C 80.4767,126.287 80.81,129.287 80.5,132.5C 77.1667,132.5 73.8333,132.5 70.5,132.5C 70.5,129.167 70.5,125.833 70.5,122.5C 73.7131,122.19 76.7131,122.523 79.5,123.5 Z"/></g>
<g><path style="opacity:1" fill="#382214" d="M 79.5,123.5 C 79.5,126.167 79.5,128.833 79.5,131.5C 76.8333,131.5 74.1667,131.5 71.5,131.5C 71.5,128.833 71.5,126.167 71.5,123.5C 74.1667,123.5 76.8333,123.5 79.5,123.5 Z"/></g>
<g><path style="opacity:1" fill="#ada29c" d="M 207.5,130.5 C 211.634,129.515 215.968,129.182 220.5,129.5C 220.5,130.833 220.5,132.167 220.5,133.5C 215.968,133.818 211.634,133.485 207.5,132.5C 223.5,131.833 223.5,131.167 207.5,130.5 Z"/></g>
<g><path style="opacity:1" fill="#402c21" d="M 207.5,137.5 C 214.167,137.5 220.833,137.5 227.5,137.5C 227.5,138.5 227.5,139.5 227.5,140.5C 220.833,140.5 214.167,140.5 207.5,140.5C 207.5,139.5 207.5,138.5 207.5,137.5 Z"/></g>
<g><path style="opacity:1" fill="#422a1c" d="M 179.5,148.5 C 182.258,149.967 181.925,150.633 178.5,150.5C 156.191,149.376 133.857,149.21 111.5,150C 108.621,150.546 105.954,151.379 103.5,152.5C 101.847,152.66 100.514,153.326 99.5,154.5C 98.3516,158.981 98.1849,163.648 99,168.5C 99.9654,175.964 101.465,183.297 103.5,190.5C 103.5,190.833 103.5,191.167 103.5,191.5C 102.883,191.389 102.383,191.056 102,190.5C 101.667,192.5 101.333,194.5 101,196.5C 98.6697,193.818 98.1697,194.151 99.5,197.5C 96.942,198.218 96.2753,199.551 97.5,201.5C 94.7746,200.287 92.4412,198.454 90.5,196C 92.4406,195.257 94.2739,195.424 96,196.5C 96.2189,195.062 96.7189,193.729 97.5,192.5C 98.1667,192.833 98.8333,193.167 99.5,193.5C 99.8333,192.167 100.167,190.833 100.5,189.5C 98.511,181.21 96.6777,172.876 95,164.5C 84.7262,176.712 78.5595,190.712 76.5,206.5C 76.6553,209.609 77.3219,212.609 78.5,215.5C 82.1994,218.35 86.1994,220.683 90.5,222.5C 92.0725,223.687 93.7392,224.687 95.5,225.5C 86.1397,224.611 78.973,220.278 74,212.5C 74.3008,192.551 81.3008,175.218 95,160.5C 94.5114,155.303 96.6781,151.803 101.5,150C 108.522,149.486 114.522,146.82 119.5,142C 115.865,133.093 113.031,123.926 111,114.5C 101.135,111.437 96.8013,104.771 98,94.5C 99.2773,92.2689 101.111,90.6022 103.5,89.5C 104.429,88.3112 104.762,86.9778 104.5,85.5C 98.5269,87.1465 92.5269,88.8132 86.5,90.5C 85.479,89.9984 85.3123,89.3317 86,88.5C 90.546,83.6226 94.7127,78.456 98.5,73C 94.8333,72.3333 91.1667,72.3333 87.5,73C 83.6529,73.7824 79.9862,74.7824 76.5,76C 85.2193,61.7776 97.5526,52.2776 113.5,47.5C 110.906,43.9744 108.573,40.3077 106.5,36.5C 108.948,35.5269 111.615,35.1936 114.5,35.5C 125.281,36.0269 135.281,39.0269 144.5,44.5C 144.833,43.8333 145.167,43.1667 145.5,42.5C 144.532,39.1744 144.032,35.841 144,32.5C 151.178,36.0864 157.845,40.4197 164,45.5C 164.333,43.5 164.667,41.5 165,39.5C 176.203,46.4119 183.37,56.2452 186.5,69C 184.958,75.2923 183.624,81.6256 182.5,88C 185.12,89.8174 187.62,91.9841 190,94.5C 190.739,104.687 186.239,111.353 176.5,114.5C 174.425,124.135 171.425,133.469 167.5,142.5C 171.286,145.059 175.286,147.059 179.5,148.5 Z"/></g>
<g><path style="opacity:1" fill="#a74d35" d="M 117.5,129.5 C 118.496,129.414 119.329,129.748 120,130.5C 120.606,133.713 121.773,136.713 123.5,139.5C 126.934,141.975 130.268,144.308 133.5,146.5C 130.881,146.768 128.381,146.435 126,145.5C 123.667,142.5 121.333,139.5 119,136.5C 118.023,134.26 117.523,131.927 117.5,129.5 Z"/></g>
<g><path style="opacity:1" fill="#b25035" d="M 169.5,128.5 C 168.673,135.863 165.34,141.696 159.5,146C 156.183,146.498 152.85,146.665 149.5,146.5C 153.114,145.335 156.78,144.002 160.5,142.5C 164.234,138.285 167.234,133.618 169.5,128.5 Z"/></g>
<g><path style="opacity:1" fill="#c3682f" d="M 169.5,128.5 C 167.234,133.618 164.234,138.285 160.5,142.5C 156.78,144.002 153.114,145.335 149.5,146.5C 144.167,146.5 138.833,146.5 133.5,146.5C 130.268,144.308 126.934,141.975 123.5,139.5C 121.773,136.713 120.606,133.713 120,130.5C 119.329,129.748 118.496,129.414 117.5,129.5C 116.167,123.5 114.833,117.5 113.5,111.5C 113.47,110.503 113.97,109.836 115,109.5C 117.099,110.287 119.266,110.62 121.5,110.5C 124.019,119.588 126.852,128.588 130,137.5C 135.364,143.061 141.864,144.895 149.5,143C 151.917,141.374 154.417,139.874 157,138.5C 159.938,129.854 162.771,121.187 165.5,112.5C 165.457,111.584 165.124,110.917 164.5,110.5C 170.342,108.3 173.675,103.967 174.5,97.5C 175.5,96.1667 176.5,96.1667 177.5,97.5C 175.571,108.131 172.904,118.465 169.5,128.5 Z"/></g>
<g><path style="opacity:1" fill="#e8b57e" d="M 164.5,110.5 C 165.124,110.917 165.457,111.584 165.5,112.5C 162.771,121.187 159.938,129.854 157,138.5C 154.417,139.874 151.917,141.374 149.5,143C 141.864,144.895 135.364,143.061 130,137.5C 126.852,128.588 124.019,119.588 121.5,110.5C 121.833,110.5 122.167,110.5 122.5,110.5C 126.967,110.867 131.3,110.367 135.5,109C 138.858,105.805 141.191,101.972 142.5,97.5C 143.325,96.6143 144.325,96.281 145.5,96.5C 146.928,107.721 153.261,112.388 164.5,110.5 Z"/></g>
<g><path style="opacity:1" fill="#914233" d="M 107.5,102.5 C 109.326,104.455 109.826,106.788 109,109.5C 106.243,107.796 104.91,105.462 105,102.5C 105.977,103.774 106.811,103.774 107.5,102.5 Z"/></g>
<g><path style="opacity:1" fill="#924335" d="M 181.5,102.5 C 182.573,103.251 182.74,104.251 182,105.5C 178.053,110.867 176.886,110.201 178.5,103.5C 179.791,103.737 180.791,103.404 181.5,102.5 Z"/></g>
<g><path style="opacity:1" fill="#b15b31" d="M 122.5,110.5 C 122.167,110.5 121.833,110.5 121.5,110.5C 119.266,110.62 117.099,110.287 115,109.5C 113.97,109.836 113.47,110.503 113.5,111.5C 110.793,106.851 110.127,101.851 111.5,96.5C 112.478,96.9767 113.311,97.6433 114,98.5C 114.685,104.263 117.519,108.263 122.5,110.5 Z"/></g>
<g><path style="opacity:1" fill="#6f605a" d="M 152.5,90.5 C 156.846,90.3343 161.179,90.501 165.5,91C 167.081,91.7065 168.581,92.5399 170,93.5C 171.782,105.052 166.948,109.885 155.5,108C 150.047,104.643 147.881,99.8094 149,93.5C 150.145,92.3636 151.312,91.3636 152.5,90.5 Z"/></g>
<g><path style="opacity:1" fill="#847875" d="M 133.5,91.5 C 133.833,91.5 134.167,91.5 134.5,91.5C 132.798,96.5771 130.798,101.577 128.5,106.5C 127.675,107.386 126.675,107.719 125.5,107.5C 126.709,103.411 128.209,99.4115 130,95.5C 130.498,93.4556 131.665,92.1223 133.5,91.5 Z"/></g>
<g><path style="opacity:1" fill="#a14a36" d="M 181.5,92.5 C 187.095,93.5601 188.929,96.8935 187,102.5C 186.252,104.332 185.252,105.999 184,107.5C 184.207,105.249 184.373,102.915 184.5,100.5C 182.61,100.297 181.11,100.963 180,102.5C 179.847,99.1001 180.347,95.7667 181.5,92.5 Z"/></g>
<g><path style="opacity:1" fill="#66554e" d="M 134.5,91.5 C 137.104,91.7884 138.77,93.1217 139.5,95.5C 139.114,101.197 136.448,105.364 131.5,108C 129.288,108.789 127.288,108.622 125.5,107.5C 126.675,107.719 127.675,107.386 128.5,106.5C 130.798,101.577 132.798,96.5771 134.5,91.5 Z"/></g>
<g><path style="opacity:1" fill="#9d4934" d="M 107.5,102.5 C 106.115,101.386 104.615,100.386 103,99.5C 102.667,101.167 102.333,102.833 102,104.5C 98.4966,100.404 98.6633,96.5706 102.5,93C 103.784,92.3162 104.951,92.4829 106,93.5C 106.953,96.4318 107.453,99.4318 107.5,102.5 Z"/></g>
<g><path style="opacity:1" fill="#66554f" d="M 127.5,90.5 C 125.997,95.4994 123.997,100.333 121.5,105C 121.833,105.5 122.167,106 122.5,106.5C 125.672,101.489 128.339,96.1556 130.5,90.5C 131.791,90.2627 132.791,90.596 133.5,91.5C 131.665,92.1223 130.498,93.4556 130,95.5C 128.209,99.4115 126.709,103.411 125.5,107.5C 119.502,107.416 116.502,104.249 116.5,98C 116.396,95.8546 117.063,94.0212 118.5,92.5C 121.399,91.3584 124.399,90.6917 127.5,90.5 Z"/></g>
<g><path style="opacity:1" fill="#847874" d="M 127.5,90.5 C 128.5,90.5 129.5,90.5 130.5,90.5C 128.339,96.1556 125.672,101.489 122.5,106.5C 122.167,106 121.833,105.5 121.5,105C 123.997,100.333 125.997,95.4994 127.5,90.5 Z"/></g>
<g><path style="opacity:1" fill="#c3692f" d="M 113.5,81.5 C 113.993,83.8056 114.326,86.139 114.5,88.5C 112.393,89.4682 110.059,89.8016 107.5,89.5C 106.665,84.6331 108.665,81.9665 113.5,81.5 Z"/></g>
<g><path style="opacity:1" fill="#e6b37d" d="M 165.5,73.5 C 167.836,74.9691 170.336,76.3024 173,77.5C 173.678,81.2211 173.511,84.8878 172.5,88.5C 153.167,89.8333 133.833,89.8333 114.5,88.5C 114.326,86.139 113.993,83.8056 113.5,81.5C 113.842,80.6618 114.508,80.3284 115.5,80.5C 124.263,76.1591 133.263,75.4925 142.5,78.5C 143.492,78.6716 144.158,78.3382 144.5,77.5C 150.976,73.9401 157.976,72.6067 165.5,73.5 Z"/></g>
<g><path style="opacity:1" fill="#ae5136" d="M 179.5,58.5 C 182.25,61.5745 183.25,65.0745 182.5,69C 180.846,69.6077 179.179,70.1077 177.5,70.5C 175.678,67.6126 176.178,65.2792 179,63.5C 179.494,61.8659 179.66,60.1992 179.5,58.5 Z"/></g>
<g><path style="opacity:1" fill="#ad4e34" d="M 103.5,71.5 C 102.129,70.2132 100.295,69.5465 98,69.5C 94.489,69.804 90.989,70.1373 87.5,70.5C 90.5346,65.8243 94.5346,64.8243 99.5,67.5C 104.06,65.8464 108.726,65.3464 113.5,66C 109.773,67.2487 106.44,69.082 103.5,71.5 Z"/></g>
<g><path style="opacity:1" fill="#c6682f" d="M 113.5,38.5 C 127.011,38.4943 138.845,42.8276 149,51.5C 148.755,47.1866 148.755,42.8532 149,38.5C 156.397,41.9529 162.564,46.9529 167.5,53.5C 168.112,52.0047 168.112,50.3381 167.5,48.5C 167.833,47.5 168.167,46.5 168.5,45.5C 173.31,48.9678 176.977,53.3012 179.5,58.5C 179.66,60.1992 179.494,61.8659 179,63.5C 176.178,65.2792 175.678,67.6126 177.5,70.5C 179.017,71.7349 180.684,71.7349 182.5,70.5C 182.833,71.3333 183.167,72.1667 183.5,73C 181.621,78.3483 180.621,83.8483 180.5,89.5C 177.721,89.7214 175.054,89.388 172.5,88.5C 173.511,84.8878 173.678,81.2211 173,77.5C 170.336,76.3024 167.836,74.9691 165.5,73.5C 164.77,71.955 163.437,71.1216 161.5,71C 156.429,70.9619 151.429,70.7952 146.5,70.5C 145.833,72.8333 145.167,75.1667 144.5,77.5C 144.158,78.3382 143.492,78.6716 142.5,78.5C 142.586,77.5041 142.252,76.6708 141.5,76C 133.478,72.8396 125.311,72.6729 117,75.5C 115.856,75.0889 114.689,74.7556 113.5,74.5C 108.956,76.864 104.289,79.0307 99.5,81C 98.6195,81.7083 97.9528,82.5416 97.5,83.5C 96.469,84.2485 95.3024,84.9152 94,85.5C 93.8333,85 93.6667,84.5 93.5,84C 96.7346,79.6647 100.068,75.4981 103.5,71.5C 106.44,69.082 109.773,67.2487 113.5,66C 108.726,65.3464 104.06,65.8464 99.5,67.5C 94.5346,64.8243 90.5346,65.8243 87.5,70.5C 86.6236,70.6309 85.9569,70.2975 85.5,69.5C 90.3074,64.1978 95.6407,59.3644 101.5,55C 104.096,53.8644 106.763,53.031 109.5,52.5C 114.752,52.469 119.918,53.1357 125,54.5C 128.043,54.501 128.21,53.6676 125.5,52C 128.025,51.9593 130.358,52.7927 132.5,54.5C 132.833,54.1667 133.167,53.8333 133.5,53.5C 127.053,47.9712 120.386,42.9712 113.5,38.5 Z"/></g>
<g><path style="opacity:1" fill="#ad5037" d="M 142.5,78.5 C 133.263,75.4925 124.263,76.1591 115.5,80.5C 115.265,79.9033 114.765,79.5699 114,79.5C 108.448,80.6977 102.948,82.031 97.5,83.5C 97.9528,82.5416 98.6195,81.7083 99.5,81C 104.289,79.0307 108.956,76.864 113.5,74.5C 114.689,74.7556 115.856,75.0889 117,75.5C 125.311,72.6729 133.478,72.8396 141.5,76C 142.252,76.6708 142.586,77.5041 142.5,78.5 Z"/></g>
<g><path style="opacity:1" fill="#b25336" d="M 165.5,73.5 C 157.976,72.6067 150.976,73.9401 144.5,77.5C 145.167,75.1667 145.833,72.8333 146.5,70.5C 151.429,70.7952 156.429,70.9619 161.5,71C 163.437,71.1216 164.77,71.955 165.5,73.5 Z"/></g>
<g><path style="opacity:1" fill="#ad4f36" d="M 113.5,38.5 C 120.386,42.9712 127.053,47.9712 133.5,53.5C 133.167,53.8333 132.833,54.1667 132.5,54.5C 130.358,52.7927 128.025,51.9593 125.5,52C 128.21,53.6676 128.043,54.501 125,54.5C 119.918,53.1357 114.752,52.469 109.5,52.5C 111.886,51.08 114.553,50.08 117.5,49.5C 115.93,45.9249 113.93,42.5916 111.5,39.5C 111.957,38.7025 112.624,38.3691 113.5,38.5 Z"/></g>
<g><path style="opacity:1" fill="#d6d5d7" d="M 178.5,151.5 C 182.475,151.486 185.808,152.819 188.5,155.5C 162.883,153.495 137.216,152.995 111.5,154C 108.139,154.337 104.806,154.837 101.5,155.5C 100.584,155.457 99.9169,155.124 99.5,154.5C 100.514,153.326 101.847,152.66 103.5,152.5C 128.55,151.551 153.55,151.218 178.5,151.5 Z"/></g>
<g><path style="opacity:1" fill="#c0bfc1" d="M 178.5,150.5 C 178.5,150.833 178.5,151.167 178.5,151.5C 153.55,151.218 128.55,151.551 103.5,152.5C 105.954,151.379 108.621,150.546 111.5,150C 133.857,149.21 156.191,149.376 178.5,150.5 Z"/></g>
<g><path style="opacity:1" fill="#9a999e" d="M 188.5,155.5 C 188.822,167.597 187.155,179.597 183.5,191.5C 179.26,195.42 174.26,197.92 168.5,199C 151.5,199.667 134.5,199.667 117.5,199C 111.613,197.902 106.946,195.069 103.5,190.5C 101.465,183.297 99.9654,175.964 99,168.5C 98.1849,163.648 98.3516,158.981 99.5,154.5C 99.9169,155.124 100.584,155.457 101.5,155.5C 104.806,154.837 108.139,154.337 111.5,154C 137.216,152.995 162.883,153.495 188.5,155.5 Z"/></g>
<g><path style="opacity:1" fill="#66554e" d="M 97.5,201.5 C 101.027,204.37 103.36,208.036 104.5,212.5C 102.151,214.204 101.151,216.537 101.5,219.5C 90.404,220.122 82.0707,215.788 76.5,206.5C 78.5595,190.712 84.7262,176.712 95,164.5C 96.6777,172.876 98.511,181.21 100.5,189.5C 100.167,190.833 99.8333,192.167 99.5,193.5C 98.8333,193.167 98.1667,192.833 97.5,192.5C 96.7189,193.729 96.2189,195.062 96,196.5C 94.2739,195.424 92.4406,195.257 90.5,196C 92.4412,198.454 94.7746,200.287 97.5,201.5 Z"/></g>
<g><path style="opacity:1" fill="#3c271a" d="M 135.5,170.5 C 138.446,172.27 141.28,174.27 144,176.5C 146.616,174.888 148.95,172.888 151,170.5C 153.705,171.953 154.539,173.953 153.5,176.5C 151.5,177.833 149.833,179.5 148.5,181.5C 150.483,182.982 152.316,184.649 154,186.5C 154.5,190 153,191.5 149.5,191C 147.65,188.982 145.65,187.149 143.5,185.5C 141.167,187.5 138.833,189.5 136.5,191.5C 134.833,190.5 133.5,189.167 132.5,187.5C 134.833,185.833 136.833,183.833 138.5,181.5C 136.684,179.183 134.684,177.016 132.5,175C 133.386,173.385 134.386,171.885 135.5,170.5 Z"/></g>
<g><path style="opacity:1" fill="#433630" d="M 97.5,201.5 C 99.8604,203.011 102.36,204.344 105,205.5C 105.212,208.252 106.045,210.752 107.5,213C 107.054,214.726 106.221,216.226 105,217.5C 104.505,219.473 104.338,221.473 104.5,223.5C 99.8809,222.686 95.2142,222.353 90.5,222.5C 86.1994,220.683 82.1994,218.35 78.5,215.5C 77.3219,212.609 76.6553,209.609 76.5,206.5C 82.0707,215.788 90.404,220.122 101.5,219.5C 101.151,216.537 102.151,214.204 104.5,212.5C 103.36,208.036 101.027,204.37 97.5,201.5 Z"/></g>
<g><path style="opacity:1" fill="#422e23" d="M 179.5,148.5 C 188.119,148.702 192.619,153.036 193,161.5C 204.451,174.404 211.618,189.404 214.5,206.5C 214.508,211.649 212.508,215.815 208.5,219C 200.196,223.878 191.196,226.544 181.5,227C 180.328,227.419 179.328,228.085 178.5,229C 155.167,229.667 131.833,229.667 108.5,229C 107.833,228.333 107.167,227.667 106.5,227C 102.786,226.68 99.1191,226.18 95.5,225.5C 93.7392,224.687 92.0725,223.687 90.5,222.5C 95.2142,222.353 99.8809,222.686 104.5,223.5C 104.338,221.473 104.505,219.473 105,217.5C 106.221,216.226 107.054,214.726 107.5,213C 106.045,210.752 105.212,208.252 105,205.5C 102.36,204.344 99.8604,203.011 97.5,201.5C 96.2753,199.551 96.942,198.218 99.5,197.5C 98.1697,194.151 98.6697,193.818 101,196.5C 101.333,194.5 101.667,192.5 102,190.5C 102.383,191.056 102.883,191.389 103.5,191.5C 105.666,198.684 107.666,206.017 109.5,213.5C 132.339,213.831 155.006,213.497 177.5,212.5C 179.017,212.511 180.184,213.177 181,214.5C 182.149,217.393 182.649,220.393 182.5,223.5C 187.519,223.248 192.519,222.748 197.5,222C 199.359,220.019 201.692,219.019 204.5,219C 209.184,216.149 211.518,211.983 211.5,206.5C 208.957,190.749 202.623,176.749 192.5,164.5C 190.324,172.381 188.657,180.381 187.5,188.5C 185.334,191.191 185.001,194.191 186.5,197.5C 187.025,198.192 187.692,198.692 188.5,199C 185.559,202.696 182.892,206.53 180.5,210.5C 179.614,209.675 179.281,208.675 179.5,207.5C 180.829,202.172 182.162,196.839 183.5,191.5C 187.155,179.597 188.822,167.597 188.5,155.5C 185.808,152.819 182.475,151.486 178.5,151.5C 178.5,151.167 178.5,150.833 178.5,150.5C 181.925,150.633 182.258,149.967 179.5,148.5 Z"/></g>
<g><path style="opacity:1" fill="#7f7f89" d="M 107.5,216.5 C 131.509,216.167 155.509,216.5 179.5,217.5C 181.062,220.614 180.729,223.447 178.5,226C 155.5,226.667 132.5,226.667 109.5,226C 107.66,223.174 106.994,220.007 107.5,216.5 Z"/></g>
<g><path style="opacity:1" fill="#43352c" d="M 187.5,188.5 C 187.105,191.523 188.105,192.523 190.5,191.5C 190.833,192 191.167,192.5 191.5,193C 190.548,194.3 190.548,195.467 191.5,196.5C 193.098,195.515 194.765,195.349 196.5,196C 190.595,199.907 186.095,205.074 183,211.5C 183.922,214.006 184.756,216.672 185.5,219.5C 196.944,220.322 205.611,215.989 211.5,206.5C 211.518,211.983 209.184,216.149 204.5,219C 201.692,219.019 199.359,220.019 197.5,222C 192.519,222.748 187.519,223.248 182.5,223.5C 182.649,220.393 182.149,217.393 181,214.5C 180.184,213.177 179.017,212.511 177.5,212.5C 177.796,210.597 178.463,208.93 179.5,207.5C 179.281,208.675 179.614,209.675 180.5,210.5C 182.892,206.53 185.559,202.696 188.5,199C 187.692,198.692 187.025,198.192 186.5,197.5C 185.001,194.191 185.334,191.191 187.5,188.5 Z"/></g>
<g><path style="opacity:1" fill="#807f88" d="M 103.5,191.5 C 103.5,191.167 103.5,190.833 103.5,190.5C 106.946,195.069 111.613,197.902 117.5,199C 134.5,199.667 151.5,199.667 168.5,199C 174.26,197.92 179.26,195.42 183.5,191.5C 182.162,196.839 180.829,202.172 179.5,207.5C 178.463,208.93 177.796,210.597 177.5,212.5C 155.006,213.497 132.339,213.831 109.5,213.5C 107.666,206.017 105.666,198.684 103.5,191.5 Z"/></g>
<g><path style="opacity:1" fill="#65544d" d="M 211.5,206.5 C 205.611,215.989 196.944,220.322 185.5,219.5C 184.756,216.672 183.922,214.006 183,211.5C 186.095,205.074 190.595,199.907 196.5,196C 194.765,195.349 193.098,195.515 191.5,196.5C 190.548,195.467 190.548,194.3 191.5,193C 191.167,192.5 190.833,192 190.5,191.5C 188.105,192.523 187.105,191.523 187.5,188.5C 188.657,180.381 190.324,172.381 192.5,164.5C 202.623,176.749 208.957,190.749 211.5,206.5 Z"/></g>
</svg>
